<?xml version="1.0" encoding="iso-8859-1"?>
<!-- Uploaded to: SVG Repo, www.svgrepo.com, Generator: SVG Repo Mixer Tools -->
<svg height="800px" width="800px" version="1.1" id="Layer_1" xmlns="http://www.w3.org/2000/svg" xmlns:xlink="http://www.w3.org/1999/xlink" 
	 viewBox="0 0 512 512" xml:space="preserve">
<path style="fill:#FF9F19;" d="M283.826,512H83.478c-8.51,0-15.653-6.397-16.598-14.854L55.75,396.973
	c-0.522-4.717,0.989-9.44,4.152-12.978c3.174-3.538,7.696-5.56,12.446-5.56h222.609c4.75,0,9.272,2.021,12.446,5.56
	c3.163,3.538,4.674,8.261,4.152,12.978l-11.13,100.174C299.478,505.603,292.336,512,283.826,512z"/>
<path style="fill:#F28618;" d="M294.957,378.435H183.652V512h100.174c8.51,0,15.652-6.397,16.598-14.854l11.13-100.174
	c0.522-4.717-0.99-9.44-4.152-12.978C304.228,380.456,299.707,378.435,294.957,378.435z"/>
<path style="fill:#FF9F19;" d="M306.087,311.652H61.217c-8.51,0-15.653-6.397-16.598-14.854l-11.13-100.174
	c-0.522-4.717,0.989-9.44,4.152-12.978c3.174-3.538,7.696-5.56,12.446-5.56h267.13c4.75,0,9.272,2.021,12.446,5.56
	c3.163,3.538,4.674,8.261,4.152,12.978l-11.13,100.174C321.74,305.255,314.597,311.652,306.087,311.652z"/>
<path style="fill:#F28618;" d="M317.217,178.087H183.652v133.565h122.435c8.51,0,15.653-6.397,16.598-14.854l11.13-100.174
	c0.522-4.717-0.99-9.44-4.152-12.978C326.489,180.108,321.968,178.087,317.217,178.087z"/>
<path style="fill:#FFCC99;" d="M57.401,411.826h252.504l14.84-133.565H42.559L57.401,411.826z"/>
<polygon style="fill:#FFBF80;" points="183.652,411.826 309.905,411.826 324.745,278.261 183.652,278.261 "/>
<path style="fill:#736056;" d="M300.522,16.696c0,9.227-7.48,16.696-16.696,16.696h-66.783c-9.205,0-16.696,7.491-16.696,16.696
	v44.522c0,9.227-7.48,16.696-16.696,16.696c-9.216,0-16.696-7.469-16.696-16.696V50.087c0-14.803,6.456-28.115,16.696-37.287
	c8.559-7.691,19.79-12.466,32.1-12.789C216.186,0,216.609,0,217.043,0h66.783C293.042,0,300.522,7.469,300.522,16.696z"/>
<path style="fill:#665247;" d="M300.522,16.696c0,9.227-7.48,16.696-16.696,16.696h-66.783c-9.205,0-16.696,7.491-16.696,16.696
	v44.522c0,9.227-7.48,16.696-16.696,16.696V12.8c8.559-7.691,19.79-12.466,32.1-12.789C216.186,0,216.609,0,217.043,0h66.783
	C293.042,0,300.522,7.469,300.522,16.696z"/>
<path style="fill:#A6673A;" d="M317.217,211.478H50.087c-5.369,0-10.403-2.581-13.544-6.934c-3.141-4.353-3.989-9.951-2.294-15.044
	l10.576-31.723c15.87-47.761,60.435-79.864,110.891-79.864h55.869c50.456,0,95.022,32.104,110.903,79.881l10.565,31.706
	c1.695,5.092,0.848,10.69-2.294,15.044C327.618,208.898,322.587,211.478,317.217,211.478z"/>
<path style="fill:#99522E;" d="M322.489,157.794c-15.88-47.777-60.445-79.881-110.901-79.881h-27.935v133.565h133.565
	c5.369,0,10.403-2.581,13.544-6.934c3.141-4.353,3.989-9.951,2.294-15.044L322.489,157.794z"/>
<path style="fill:#FFCC99;" d="M350.609,211.478H16.696C7.479,211.478,0,204.005,0,194.783c0-9.223,7.479-16.696,16.696-16.696
	h333.913c9.217,0,16.696,7.473,16.696,16.696C367.304,204.005,359.826,211.478,350.609,211.478z"/>
<path style="fill:#FFBF80;" d="M350.609,178.087H183.652v33.391h166.957c9.217,0,16.696-7.473,16.696-16.696
	C367.304,185.56,359.826,178.087,350.609,178.087z"/>
<path style="fill:#A6673A;" d="M378.435,512c-73.652,0-133.565-59.918-133.565-133.565S304.782,244.87,378.435,244.87
	S512,304.788,512,378.435S452.087,512,378.435,512z"/>
<path style="fill:#99522E;" d="M512,378.435c0-73.647-59.913-133.565-133.565-133.565V512C452.087,512,512,452.082,512,378.435z"/>
<g>
	<circle style="fill:#FFDFB3;" cx="384" cy="328.348" r="16.696"/>
	<circle style="fill:#FFDFB3;" cx="328.348" cy="372.87" r="16.696"/>
	<circle style="fill:#FFDFB3;" cx="372.87" cy="428.522" r="16.696"/>
	<circle style="fill:#FFDFB3;" cx="428.522" cy="384" r="16.696"/>
</g>
</svg>