<?xml version="1.0" encoding="utf-8"?><!-- Uploaded to: SVG Repo, www.svgrepo.com, Generator: SVG Repo Mixer Tools -->
<svg fill="#000000" width="800px" height="800px" viewBox="0 0 24 24" id="bedroom-7" data-name="Flat Color" xmlns="http://www.w3.org/2000/svg" class="icon flat-color"><path id="secondary" d="M6,19v2a1,1,0,0,1-2,0V19a1,1,0,0,1,2,0ZM18,2H6A2,2,0,0,0,4,4V9a1,1,0,0,0,1,1H19a1,1,0,0,0,1-1V4A2,2,0,0,0,18,2Zm1,16a1,1,0,0,0-1,1v2a1,1,0,0,0,2,0V19A1,1,0,0,0,19,18Z" style="fill: rgb(44, 169, 188);"></path><path id="primary" d="M21.94,14.66l-2-6A1,1,0,0,0,19,8H5a1,1,0,0,0-1,.68l-2,6A.85.85,0,0,0,2,15v3a2,2,0,0,0,2,2H20a2,2,0,0,0,2-2V15A.85.85,0,0,0,21.94,14.66Z" style="fill: rgb(0, 0, 0);"></path></svg>