<svg xmlns="http://www.w3.org/2000/svg" xmlns:xlink="http://www.w3.org/1999/xlink" version="1.1" width="256" height="256" viewBox="0 0 256 256" xml:space="preserve">

<defs>
</defs>
<g style="stroke: none; stroke-width: 0; stroke-dasharray: none; stroke-linecap: butt; stroke-linejoin: miter; stroke-miterlimit: 10; fill: none; fill-rule: nonzero; opacity: 1;" transform="translate(1.4065934065934016 1.4065934065934016) scale(2.81 2.81)" >
	<path d="M 45.618 0.384 l 2.191 4.44 c 0.1 0.203 0.295 0.344 0.519 0.377 l 4.9 0.712 c 0.565 0.082 0.791 0.777 0.382 1.176 l -3.546 3.456 c -0.162 0.158 -0.237 0.387 -0.198 0.61 l 0.837 4.88 c 0.097 0.563 -0.494 0.993 -1 0.727 l -4.383 -2.304 c -0.201 -0.106 -0.441 -0.106 -0.642 0 l -4.383 2.304 c -0.506 0.266 -1.097 -0.164 -1 -0.727 l 0.837 -4.88 c 0.038 -0.224 -0.036 -0.452 -0.198 -0.61 l -3.546 -3.456 c -0.409 -0.399 -0.183 -1.094 0.382 -1.176 l 4.9 -0.712 c 0.225 -0.033 0.419 -0.174 0.519 -0.377 l 2.191 -4.44 C 44.635 -0.128 45.365 -0.128 45.618 0.384 z" style="stroke: none; stroke-width: 1; stroke-dasharray: none; stroke-linecap: butt; stroke-linejoin: miter; stroke-miterlimit: 10; fill: rgb(251,171,0); fill-rule: nonzero; opacity: 1;" transform=" matrix(1 0 0 1 0 0) " stroke-linecap="round" />
	<path d="M 77.523 69.275 h -0.202 c 2.554 0 4.644 -2.09 4.644 -4.644 v -0.926 c 0 -2.554 -2.09 -4.644 -4.644 -4.644 h -0.552 c 2.554 0 4.644 -2.09 4.644 -4.644 V 53.49 c 0 -2.554 -2.09 -4.644 -4.644 -4.644 l -19.417 0.031 c 2.049 -19.596 -1.93 -24.376 -9.825 -22.541 c -0.529 11.102 -7.559 26.237 -14.713 26.651 c -3.835 11.045 -4.039 21.835 0 32.325 c 2.552 2.807 8.775 4.542 14.692 4.393 l 26.182 0 c 2.554 0 4.644 -2.09 4.644 -4.644 v -0.926 c 0 -2.554 -2.09 -4.644 -4.644 -4.644 h 3.836 c 2.554 0 4.644 -2.09 4.644 -4.644 v -0.926 C 82.167 71.365 80.077 69.275 77.523 69.275 z" style="stroke: none; stroke-width: 1; stroke-dasharray: none; stroke-linecap: butt; stroke-linejoin: miter; stroke-miterlimit: 10; fill: rgb(255,200,159); fill-rule: nonzero; opacity: 1;" transform=" matrix(1 0 0 1 0 0) " stroke-linecap="round" />
	<path d="M 32.814 51.084 c 0 -1.358 -1.245 -2.47 -2.767 -2.47 H 10.6 c -1.522 0 -2.767 1.111 -2.767 2.47 l 0 36.446 c 0 1.358 1.245 2.47 2.767 2.47 h 19.447 c 1.522 0 2.767 -1.112 2.767 -2.47 v -2.218 V 52.987 V 51.084 z" style="stroke: none; stroke-width: 1; stroke-dasharray: none; stroke-linecap: butt; stroke-linejoin: miter; stroke-miterlimit: 10; fill: rgb(73,104,116); fill-rule: nonzero; opacity: 1;" transform=" matrix(1 0 0 1 0 0) " stroke-linecap="round" />
	<path d="M 75.736 59.561 h -7.712 c -0.276 0 -0.5 -0.224 -0.5 -0.5 s 0.224 -0.5 0.5 -0.5 h 7.712 c 0.276 0 0.5 0.224 0.5 0.5 S 76.013 59.561 75.736 59.561 z" style="stroke: none; stroke-width: 1; stroke-dasharray: none; stroke-linecap: butt; stroke-linejoin: miter; stroke-miterlimit: 10; fill: rgb(221,154,118); fill-rule: nonzero; opacity: 1;" transform=" matrix(1 0 0 1 0 0) " stroke-linecap="round" />
	<path d="M 76.289 69.775 h -8.265 c -0.276 0 -0.5 -0.224 -0.5 -0.5 s 0.224 -0.5 0.5 -0.5 h 8.265 c 0.276 0 0.5 0.224 0.5 0.5 S 76.565 69.775 76.289 69.775 z" style="stroke: none; stroke-width: 1; stroke-dasharray: none; stroke-linecap: butt; stroke-linejoin: miter; stroke-miterlimit: 10; fill: rgb(221,154,118); fill-rule: nonzero; opacity: 1;" transform=" matrix(1 0 0 1 0 0) " stroke-linecap="round" />
	<path d="M 72.654 79.99 h -4.63 c -0.276 0 -0.5 -0.224 -0.5 -0.5 s 0.224 -0.5 0.5 -0.5 h 4.63 c 0.276 0 0.5 0.224 0.5 0.5 S 72.931 79.99 72.654 79.99 z" style="stroke: none; stroke-width: 1; stroke-dasharray: none; stroke-linecap: butt; stroke-linejoin: miter; stroke-miterlimit: 10; fill: rgb(221,154,118); fill-rule: nonzero; opacity: 1;" transform=" matrix(1 0 0 1 0 0) " stroke-linecap="round" />
	<circle cx="20.618" cy="78.858" r="3.098" style="stroke: none; stroke-width: 1; stroke-dasharray: none; stroke-linecap: butt; stroke-linejoin: miter; stroke-miterlimit: 10; fill: rgb(70,90,101); fill-rule: nonzero; opacity: 1;" transform="  matrix(1 0 0 1 0 0) "/>
	<path d="M 69.485 10.329 l 2.191 4.44 c 0.1 0.203 0.295 0.344 0.519 0.377 l 4.9 0.712 c 0.565 0.082 0.791 0.777 0.382 1.176 l -3.546 3.456 c -0.162 0.158 -0.237 0.387 -0.198 0.61 l 0.837 4.88 c 0.097 0.563 -0.494 0.993 -1 0.727 l -4.383 -2.304 c -0.201 -0.106 -0.441 -0.106 -0.642 0 l -4.383 2.304 c -0.506 0.266 -1.097 -0.164 -1 -0.727 L 64 21.1 c 0.038 -0.224 -0.036 -0.452 -0.198 -0.61 l -3.546 -3.456 c -0.409 -0.399 -0.183 -1.094 0.382 -1.176 l 4.9 -0.712 c 0.225 -0.033 0.419 -0.174 0.519 -0.377 l 2.191 -4.44 C 68.501 9.816 69.232 9.816 69.485 10.329 z" style="stroke: none; stroke-width: 1; stroke-dasharray: none; stroke-linecap: butt; stroke-linejoin: miter; stroke-miterlimit: 10; fill: rgb(251,171,0); fill-rule: nonzero; opacity: 1;" transform=" matrix(1 0 0 1 0 0) " stroke-linecap="round" />
	<path d="M 22.746 10.329 l 2.191 4.44 c 0.1 0.203 0.295 0.344 0.519 0.377 l 4.9 0.712 c 0.565 0.082 0.791 0.777 0.382 1.176 l -3.546 3.456 c -0.162 0.158 -0.237 0.387 -0.198 0.61 l 0.837 4.88 c 0.097 0.563 -0.494 0.993 -1 0.727 l -4.383 -2.304 c -0.201 -0.106 -0.441 -0.106 -0.642 0 l -4.383 2.304 c -0.506 0.266 -1.097 -0.164 -1 -0.727 l 0.837 -4.88 c 0.038 -0.224 -0.036 -0.452 -0.198 -0.61 l -3.546 -3.456 c -0.409 -0.399 -0.183 -1.094 0.382 -1.176 l 4.9 -0.712 c 0.225 -0.033 0.419 -0.174 0.519 -0.377 l 2.191 -4.44 C 21.763 9.816 22.493 9.816 22.746 10.329 z" style="stroke: none; stroke-width: 1; stroke-dasharray: none; stroke-linecap: butt; stroke-linejoin: miter; stroke-miterlimit: 10; fill: rgb(251,171,0); fill-rule: nonzero; opacity: 1;" transform=" matrix(1 0 0 1 0 0) " stroke-linecap="round" />
</g>
</svg>